<svg width="32" height="32" viewBox="0 0 32 32" fill="none" xmlns="http://www.w3.org/2000/svg">
<path fill-rule="evenodd" clip-rule="evenodd" d="M16.0001 1.05618e-06C7.16466 1.05618e-06 0 7.34463 0 16.4051C0 23.6533 4.58452 29.8026 10.9419 31.9718C11.7415 32.1237 12.0351 31.6159 12.0351 31.1826C12.0351 30.7914 12.0202 29.4991 12.0134 28.1283C7.5621 29.1207 6.62283 26.1928 6.62283 26.1928C5.89499 24.2966 4.84631 23.7924 4.84631 23.7924C3.39461 22.7742 4.95573 22.7951 4.95573 22.7951C6.56242 22.9105 7.40842 24.4859 7.40842 24.4859C8.83547 26.9936 11.1514 26.2685 12.0645 25.8494C12.2081 24.7891 12.6227 24.0651 13.0803 23.6557C9.52647 23.2409 5.7906 21.8342 5.7906 15.5483C5.7906 13.7572 6.41563 12.2938 7.43916 11.1449C7.27303 10.7314 6.72537 9.06316 7.59416 6.80348C7.59416 6.80348 8.93774 6.36257 11.9953 8.48506C13.2716 8.12158 14.6404 7.9393 16.0001 7.93305C17.3599 7.9393 18.7297 8.12158 20.0084 8.48506C23.0623 6.36257 24.404 6.80348 24.404 6.80348C25.2749 9.06316 24.727 10.7314 24.5608 11.1449C25.5868 12.2938 26.2075 13.7572 26.2075 15.5483C26.2075 21.8492 22.4645 23.2365 18.9017 23.6427C19.4756 24.1518 19.9869 25.1501 19.9869 26.6807C19.9869 28.8757 19.9684 30.6423 19.9684 31.1826C19.9684 31.6192 20.2564 32.1307 21.0674 31.9696C27.4213 29.798 32 23.6508 32 16.4051C32 7.34463 24.8364 1.05618e-06 16.0001 1.05618e-06" fill="#1B1817"/>
<path d="M6.06005 23.5541C6.02482 23.6358 5.89976 23.66 5.78583 23.6041C5.66978 23.5505 5.6046 23.4394 5.64222 23.3577C5.67666 23.274 5.80199 23.2506 5.91778 23.3063C6.03409 23.3601 6.10033 23.4723 6.06005 23.5541Z" fill="#1B1817"/>
<path d="M6.70813 24.2952C6.63183 24.3677 6.48266 24.334 6.38145 24.2194C6.27679 24.105 6.25718 23.952 6.33455 23.8784C6.41324 23.8062 6.5579 23.8401 6.66283 23.9542C6.76748 24.0699 6.78788 24.2218 6.70813 24.2952Z" fill="#1B1817"/>
<path d="M7.339 25.24C7.24097 25.3098 7.08067 25.2444 6.98158 25.0985C6.88354 24.9526 6.88354 24.7776 6.9837 24.7076C7.08305 24.6375 7.24097 24.7008 7.34139 24.8453C7.43915 24.9936 7.43915 25.1686 7.339 25.24" fill="#1B1817"/>
<path d="M8.20329 26.1528C8.11559 26.252 7.92879 26.2253 7.79207 26.0901C7.65218 25.9578 7.61323 25.77 7.7012 25.6709C7.78996 25.5714 7.97781 25.5994 8.11558 25.7336C8.25442 25.8657 8.29682 26.0547 8.20329 26.1528Z" fill="#1B1817"/>
<path d="M9.39554 26.6828C9.35686 26.8113 9.17695 26.8697 8.99572 26.8151C8.81476 26.7589 8.69633 26.6084 8.73289 26.4785C8.77051 26.3492 8.95121 26.2884 9.13377 26.3468C9.31446 26.4028 9.43317 26.5522 9.39554 26.6828Z" fill="#1B1817"/>
<path d="M10.705 26.7812C10.7095 26.9165 10.5558 27.0287 10.3656 27.0311C10.1743 27.0355 10.0196 26.926 10.0174 26.7929C10.0174 26.6562 10.1677 26.5451 10.359 26.5419C10.5492 26.5381 10.705 26.6467 10.705 26.7812Z" fill="#1B1817"/>
<path d="M11.9235 26.5685C11.9463 26.7005 11.8141 26.8361 11.6252 26.8722C11.4394 26.907 11.2675 26.8255 11.2439 26.6945C11.2208 26.5593 11.3554 26.4237 11.5409 26.3887C11.7301 26.355 11.8994 26.4343 11.9235 26.5685" fill="#1B1817"/>
</svg>
