<svg width="32" height="32" viewBox="0 0 32 32" fill="none" xmlns="http://www.w3.org/2000/svg">
<g clip-path="url(#clip0)">
<path d="M32 16.3675C32 15.2798 31.91 14.1863 31.7181 13.1163H16.3209V19.2776H25.1381C24.7723 21.2648 23.5966 23.0226 21.8752 24.1397V28.1375H27.1355C30.2246 25.3508 32 21.2354 32 16.3675Z" fill="#4285F4"/>
<path d="M16.3209 32C20.7235 32 24.4364 30.5831 27.1415 28.1374L21.8812 24.1396C20.4176 25.1155 18.5282 25.6682 16.3269 25.6682C12.0682 25.6682 8.45736 22.8521 7.16176 19.0659H1.73346V23.1872C4.50459 28.5901 10.1488 32 16.3209 32V32Z" fill="#34A853"/>
<path d="M7.15577 19.066C6.47198 17.0789 6.47198 14.9271 7.15577 12.94V8.81873H1.73346C-0.581817 13.3398 -0.581817 18.6662 1.73346 23.1873L7.15577 19.066V19.066Z" fill="#FBBC04"/>
<path d="M16.3209 6.33178C18.6482 6.29651 20.8975 7.15486 22.5829 8.73046L27.2435 4.16239C24.2924 1.44624 20.3756 -0.0470533 16.3209 -2.04115e-05C10.1488 -2.04115e-05 4.50459 3.40986 1.73346 8.81865L7.15577 12.9399C8.44536 9.14788 12.0622 6.33178 16.3209 6.33178V6.33178Z" fill="#EA4335"/>
</g>
<defs>
<clipPath id="clip0">
<rect width="32" height="32" fill="white"/>
</clipPath>
</defs>
</svg>
